<?xml version="1.0" standalone="no"?>
<!DOCTYPE svg PUBLIC "-//W3C//DTD SVG 20010904//EN"
 "http://www.w3.org/TR/2001/REC-SVG-20010904/DTD/svg10.dtd">
<svg version="1.0" xmlns="http://www.w3.org/2000/svg"
 width="64.000000pt" height="64.000000pt" viewBox="0 0 64.000000 64.000000"
 preserveAspectRatio="xMidYMid meet">

<g transform="translate(0.000000,64.000000) scale(0.100000,-0.100000)"
fill="#000000" stroke="none">
<path d="M349 616 c6 -8 26 -12 46 -10 34 2 35 2 35 -36 0 -21 5 -42 10 -45
17 -10 12 72 -6 89 -20 21 -102 23 -85 2z"/>
<path d="M140 156 c0 -143 3 -146 146 -146 67 0 103 4 99 10 -3 5 -37 10 -76
10 -39 0 -69 4 -69 10 0 6 25 10 56 10 34 0 53 4 49 10 -3 6 -33 10 -66 10
-33 0 -59 4 -59 10 0 6 21 10 46 10 27 0 43 4 39 10 -3 5 -19 10 -36 10 -16 0
-29 5 -29 10 0 6 7 10 16 10 13 0 14 3 4 15 -16 19 -26 12 -46 -32 -14 -28
-15 -39 -6 -54 16 -25 15 -29 -6 -29 -35 0 -42 21 -42 121 0 55 -4 101 -10
104 -6 4 -10 -32 -10 -99z"/>
</g>
</svg>
