<svg width="470" height="480" viewBox="0 0 470 480" fill="none" xmlns="http://www.w3.org/2000/svg">
<path fill-rule="evenodd" clip-rule="evenodd" d="M382.462 258.72C383.182 252.72 383.662 246.48 383.662 240C383.662 233.52 383.182 227.28 382.222 221.28L422.782 189.6C426.382 186.72 427.342 181.44 425.182 177.36L386.782 110.88C384.382 106.56 379.342 105.12 375.022 106.56L327.262 125.76C317.182 118.08 306.622 111.84 294.862 107.04L287.662 56.16C286.942 51.36 282.862 48 278.062 48H201.262C196.462 48 192.622 51.36 191.902 56.16L184.702 107.04C172.942 111.84 162.142 118.32 152.302 125.76L104.542 106.56C100.222 104.88 95.1823 106.56 92.7823 110.88L54.3823 177.36C51.9823 181.68 52.9423 186.72 56.7823 189.6L97.3423 221.28C96.3823 227.28 95.6623 233.76 95.6623 240C95.6623 246.24 96.1423 252.72 97.1023 258.72L56.5423 290.4C52.9423 293.28 51.9823 298.56 54.1423 302.64L92.5423 369.12C94.9423 373.44 99.9823 374.88 104.302 373.44L152.062 354.24C162.142 361.92 172.702 368.16 184.462 372.96L191.662 423.84C192.622 428.64 196.462 432 201.262 432H278.062C282.862 432 286.942 428.64 287.422 423.84L294.622 372.96C306.382 368.16 317.182 361.68 327.022 354.24L374.782 373.44C379.102 375.12 384.142 373.44 386.542 369.12L424.942 302.64C427.342 298.32 426.382 293.28 422.542 290.4L382.462 258.72V258.72ZM239.662 312C200.062 312 167.662 279.6 167.662 240C167.662 200.4 200.062 168 239.662 168C279.262 168 311.662 200.4 311.662 240C311.662 279.6 279.262 312 239.662 312Z" fill="black" fill-opacity="0.87"/>
</svg>
